<svg xmlns="http://www.w3.org/2000/svg" viewBox="761 252 739 122"><defs><style>.a,.b{fill:#fff;}.b{font-size:109px;font-family:Arial-BoldMT, Arial;font-weight:700;}</style></defs><g transform="translate(0 -152)"><path class="a" d="M0,0H15A35,35,0,0,1,50,35V50a0,0,0,0,1,0,0H0a0,0,0,0,1,0,0V0A0,0,0,0,1,0,0Z" transform="translate(761 415)"/><path class="a" d="M0,0H15A35,35,0,0,1,50,35V50a0,0,0,0,1,0,0H0a0,0,0,0,1,0,0V0A0,0,0,0,1,0,0Z" transform="translate(811 520) rotate(180)"/><path class="a" d="M35,0H50a0,0,0,0,1,0,0V50a0,0,0,0,1,0,0H0a0,0,0,0,1,0,0V35A35,35,0,0,1,35,0Z" transform="translate(817 415)"/><rect class="a" width="50" height="50" transform="translate(867 520) rotate(180)"/><path class="a" d="M35,0H50a0,0,0,0,1,0,0V50a0,0,0,0,1,0,0H0a0,0,0,0,1,0,0V35A35,35,0,0,1,35,0Z" transform="translate(923 520) rotate(180)"/><path class="a" d="M35,0H50V50H0V35A35,35,0,0,1,35,0Z" transform="translate(873 415)"/><text class="b" transform="translate(963 503)"><tspan x="0" y="0">workproof</tspan></text></g></svg>