<svg xmlns="http://www.w3.org/2000/svg" viewBox="0 0 52 51.93"><defs><style>.a{fill:#fff;}</style></defs><g transform="translate(0)"><path class="a" d="M331,360.316h12.289v3.047H331Zm0,0" transform="translate(-297.383 -323.722)"/><path class="a" d="M271,300.316h18.383v3.047H271Zm0,0" transform="translate(-243.477 -269.815)"/><path class="a" d="M331,240.316h12.289v3.047H331Zm0,0" transform="translate(-297.383 -215.909)"/><path class="a" d="M271,420.316h18.383v3.047H271Zm0,0" transform="translate(-243.477 -377.628)"/><path class="a" d="M30.57,11.3,39.293,2.1,37.081,0l-8.69,9.173H23.608L14.918,0,12.706,2.1,21.429,11.3v3.963H0V51.93H52V15.266H30.57Zm-6.094.916h3.047v6.094H24.476Zm24.476,6.094v30.57H3.047V18.313H21.429V21.36H30.57V18.313Zm0,0" transform="translate(0)"/><path class="a" d="M103.187,216.41a6.094,6.094,0,1,0-6.094,6.094A6.1,6.1,0,0,0,103.187,216.41Zm-6.094,3.047a3.047,3.047,0,1,1,3.047-3.047A3.05,3.05,0,0,1,97.094,219.457Zm0,0" transform="translate(-81.758 -188.956)"/><path class="a" d="M70.141,330.316A9.151,9.151,0,0,0,61,339.457V342.5H79.281v-3.047A9.151,9.151,0,0,0,70.141,330.316Zm-6.094,9.141a6.094,6.094,0,1,1,12.187,0Zm0,0" transform="translate(-54.805 -296.768)"/></g></svg>