<svg xmlns="http://www.w3.org/2000/svg" viewBox="0 0 44 44"><defs><style>.a{fill:#fff;}</style></defs><g transform="translate(0 0)"><path class="a" d="M34.867,20.625a3.853,3.853,0,0,0,2.682-1.085l3.794,1.9a3.867,3.867,0,1,0,7.326-1.189l5.157-5.157a3.867,3.867,0,0,0,5.357-4.646l4.48-3.36a3.862,3.862,0,1,0-1.548-2.061l-4.48,3.36A3.866,3.866,0,0,0,52,13.268l-5.157,5.157a3.859,3.859,0,0,0-4.348.707l-3.794-1.9a3.867,3.867,0,1,0-3.837,3.39ZM65.8,2.578a1.289,1.289,0,1,1-1.289,1.289A1.291,1.291,0,0,1,65.8,2.578ZM55.492,10.313A1.289,1.289,0,1,1,54.2,11.6,1.291,1.291,0,0,1,55.492,10.313ZM45.18,20.625a1.289,1.289,0,1,1-1.289,1.289A1.291,1.291,0,0,1,45.18,20.625ZM34.867,15.469a1.289,1.289,0,1,1-1.289,1.289A1.291,1.291,0,0,1,34.867,15.469Zm0,0" transform="translate(-28.336)"/><path class="a" d="M42.711,178.531H41.336V151.289A1.289,1.289,0,0,0,40.047,150H34.891a1.289,1.289,0,0,0-1.289,1.289v27.242H31.023V159.023a1.289,1.289,0,0,0-1.289-1.289H24.578a1.289,1.289,0,0,0-1.289,1.289v19.508H20.711v-9.2a1.289,1.289,0,0,0-1.289-1.289H14.266a1.289,1.289,0,0,0-1.289,1.289v9.2H10.4V164.18a1.289,1.289,0,0,0-1.289-1.289H3.953a1.289,1.289,0,0,0-1.289,1.289v14.352H1.289a1.289,1.289,0,0,0,0,2.578H42.711a1.289,1.289,0,0,0,0-2.578ZM36.18,152.578h2.578v25.953H36.18Zm-10.312,7.734h2.578v18.219H25.867ZM15.555,170.625h2.578v7.906H15.555ZM5.242,165.469H7.82v13.062H5.242Zm0,0" transform="translate(0 -137.109)"/></g></svg>