<svg xmlns="http://www.w3.org/2000/svg" viewBox="0 0 30 30.009"><defs><style>.a{fill:#cfd1d1;}</style></defs><g transform="translate(-0.007 0)"><g transform="translate(0.007 0.001)"><path class="a" d="M27.78,4.531a1.629,1.629,0,0,0-2.3-2.3,7.6,7.6,0,0,0-10.75,0L7.487,9.467c-.636.636-1.336.879-2.742.438A2.94,2.94,0,0,0,2,10.344L.431,11.915l.008.007c-1.375,1.531.631,5.924,4.581,10.313a5.07,5.07,0,0,1,.8-1.9c-3.008-3.51-4.02-6.21-3.971-7.1h.033c1.583,0,5.3,2.036,9.077,5.811.222.221.43.44.637.658A3.836,3.836,0,0,0,6.68,21.3h0c0,.007-.006.013-.009.02a3.84,3.84,0,0,0-.394,1c0,.019-.011.038-.014.058a3.952,3.952,0,0,0-.082.525.071.071,0,0,1,0,.012,3.807,3.807,0,0,0,0,.512c0,.013,0,.025,0,.038l0,0a3.849,3.849,0,0,0,3.845,3.613c.1,0,.194-.007.291-.013h0a3.711,3.711,0,0,0,.546-.082l.016,0a3.86,3.86,0,0,0,1.04-.4l.008,0a3.842,3.842,0,0,0,1.806-4.41c2.3,2.961,3.1,5.192,3.055,5.986H16.75A7.662,7.662,0,0,1,13.5,26.935a5.053,5.053,0,0,1-1.789,1.09A10.629,10.629,0,0,0,16.75,30.01a1.936,1.936,0,0,0,1.338-.439l0,.008,1.571-1.57c.635-.636.469-1.844.439-2.743-.032-.943-.2-2.106.438-2.742l7.24-7.24A7.605,7.605,0,0,0,27.78,4.531Z" transform="translate(-0.007 -0.001)"/></g></g></svg>