<svg xmlns="http://www.w3.org/2000/svg" viewBox="0 0 30 30.001"><g transform="translate(-0.001)"><g transform="translate(0.001)"><path d="M15,0A15,15,0,1,0,30,15,15.018,15.018,0,0,0,15,0ZM23.65,23.268v-.592c0-2.046-2.364-2.792-3.629-3.333-.458-.2-1.321-.611-2.207-1.044a1.21,1.21,0,0,1-.6-.869l-.1-.969a4.166,4.166,0,0,0,1.392-2.491h.153a.515.515,0,0,0,.5-.4l.24-1.482a.491.491,0,0,0-.509-.509c.007-.031.012-.063.015-.09.031-.178.05-.35.062-.518.015-.135.027-.274.034-.419A3.347,3.347,0,0,0,18.713,8.9a3.924,3.924,0,0,0-.922-1.343c-1.172-1.109-2.53-1.541-3.689-.65a2.681,2.681,0,0,0-2.4,1.017A3.156,3.156,0,0,0,11,9.339a4.492,4.492,0,0,0-.161,1.07,4.33,4.33,0,0,0,.109,1.176.5.5,0,0,0-.462.5l.239,1.482a.515.515,0,0,0,.5.4h.137a4.974,4.974,0,0,0,1.4,2.536l-.094.937a1.213,1.213,0,0,1-.6.869c-.857.418-1.7.821-2.206,1.029-1.19.491-3.629,1.288-3.629,3.333v.463a11.978,11.978,0,1,1,17.414.129Z" transform="translate(-0.001)"/></g></g></svg>