<svg xmlns="http://www.w3.org/2000/svg" viewBox="5729 260 18 18"><defs><style>.a{fill:#a1b0c5;}</style></defs><path class="a" d="M17.25,3.75h-4.5v-3A.75.75,0,0,0,12,0H6a.75.75,0,0,0-.75.75v3H.75A.75.75,0,0,0,0,4.5V17.25A.75.75,0,0,0,.75,18h16.5a.75.75,0,0,0,.75-.75V4.5A.75.75,0,0,0,17.25,3.75ZM6.75,1.5h4.5V3.75H6.75ZM16.5,5.25V9H11.625V7.5a.75.75,0,0,0-.75-.75H7.125a.75.75,0,0,0-.75.75V9H1.5V5.25Zm-8.625,3h2.25v1.875a1.125,1.125,0,0,1-2.25,0ZM1.5,16.5v-6H6.405a2.621,2.621,0,0,0,5.19,0H16.5v6Zm0,0" transform="translate(5729 260)"/></svg>