<svg xmlns="http://www.w3.org/2000/svg" viewBox="5417 420 18 17.214"><defs><style>.a{fill:#2DD6FF;}</style></defs><path class="a" d="M9.87,1.587,11.9,5.7a.969.969,0,0,0,.73.53l4.54.66a.969.969,0,0,1,.537,1.653l-3.285,3.2a.969.969,0,0,0-.279.858l.775,4.521a.969.969,0,0,1-1.407,1.022l-4.06-2.135a.97.97,0,0,0-.9,0l-4.06,2.135a.969.969,0,0,1-1.407-1.022L3.858,12.6a.969.969,0,0,0-.279-.858L.294,8.544A.969.969,0,0,1,.832,6.891l4.54-.66A.969.969,0,0,0,6.1,5.7l2.03-4.114A.969.969,0,0,1,9.87,1.587Z" transform="translate(5417 418.953)"/></svg>