<svg xmlns="http://www.w3.org/2000/svg" viewBox="5645 261 18 18"><defs><style>.a{fill:#a1b0c5;}</style></defs><g transform="translate(5645 261)"><path class="a" d="M15.364,2.636A9,9,0,0,0,2.636,15.364,9,9,0,1,0,15.364,2.636ZM9,16.945A7.945,7.945,0,1,1,16.945,9,7.954,7.954,0,0,1,9,16.945Z"/><g transform="translate(4.546 5.958)"><path class="a" d="M138.055,169.622a.527.527,0,0,0-.746,0l-4.657,4.657-2.451-2.451a.527.527,0,1,0-.746.746l2.824,2.824a.527.527,0,0,0,.746,0l5.03-5.03A.527.527,0,0,0,138.055,169.622Z" transform="translate(-129.301 -169.467)"/></g></g></svg>