<svg xmlns="http://www.w3.org/2000/svg" viewBox="5817 263 20 14.544"><defs><style>.a,.b{fill:#a1b0c5;}.b{font-size:10px;font-family:ArialMT, Arial;}</style></defs><g transform="translate(4040 25)"><path class="a" d="M2.727,77.1H0l3.637,3.637L7.273,77.1H4.546A5.47,5.47,0,0,1,10,71.65a5.852,5.852,0,0,1,2.545.637l1.363-1.363A8.124,8.124,0,0,0,10,69.832,7.293,7.293,0,0,0,2.727,77.1Zm12.727,0A5.47,5.47,0,0,1,10,82.559a5.852,5.852,0,0,1-2.545-.637L6.092,83.285A8.124,8.124,0,0,0,10,84.376,7.294,7.294,0,0,0,17.273,77.1H20l-3.637-3.637L12.727,77.1Z" transform="translate(1777 168.168)"/><text class="b" transform="translate(1784 249)"><tspan x="0" y="0">1</tspan></text></g></svg>