<svg xmlns="http://www.w3.org/2000/svg" viewBox="4516 2077 18 18"><defs><style>.a{fill:#a1b0c5;}</style></defs><g transform="translate(4516 2077)"><path class="a" d="M16.418,0H1.582A1.584,1.584,0,0,0,0,1.582v.8A5.774,5.774,0,0,0,1.261,5.98,5.874,5.874,0,0,0,3.969,7.844l.559.186a5.253,5.253,0,0,0,2.89,2.259v.82a.528.528,0,0,1-.527.527,1.584,1.584,0,0,0-1.582,1.582v.527H4.781a.527.527,0,0,0-.527.527v2.672H3.727a.527.527,0,0,0,0,1.055H14.273a.527.527,0,0,0,0-1.055h-.527V14.273a.527.527,0,0,0-.527-.527h-.527v-.527a1.584,1.584,0,0,0-1.582-1.582.528.528,0,0,1-.527-.527v-.82A5.253,5.253,0,0,0,13.47,8.034l.589-.188.007,0A5.754,5.754,0,0,0,18,2.386v-.8A1.584,1.584,0,0,0,16.418,0ZM2.084,5.321a4.715,4.715,0,0,1-1.03-2.935v-.8a.528.528,0,0,1,.527-.527H3.255l.537,4.83a5.194,5.194,0,0,0,.161.826,4.767,4.767,0,0,1-1.868-1.39ZM5.309,16.945V14.8h7.383v2.145ZM9.936,9.373a.527.527,0,0,0-.409.514v1.222a1.584,1.584,0,0,0,1.582,1.582.528.528,0,0,1,.527.527v.527H6.363v-.527a.528.528,0,0,1,.527-.527,1.584,1.584,0,0,0,1.582-1.582V9.887a.527.527,0,0,0-.409-.514,4.184,4.184,0,0,1-3.224-3.6L4.316,1.055h9.369l-.524,4.714a4.184,4.184,0,0,1-3.224,3.6Zm7.009-6.988a4.7,4.7,0,0,1-2.9,4.342,5.193,5.193,0,0,0,.166-.842l.537-4.83h1.673a.528.528,0,0,1,.527.527Zm0,0"/><path class="a" d="M185.82,61.5l-1.185-.168-.528-1.044a.527.527,0,0,0-.941,0l-.528,1.044-1.185.168a.527.527,0,0,0-.289.9l.85.809-.2,1.139a.527.527,0,0,0,.76.56l1.063-.546,1.063.546a.527.527,0,0,0,.76-.56l-.2-1.139.85-.809a.527.527,0,0,0-.289-.9Zm-1.492,1.144a.527.527,0,0,0-.156.473l.065.372-.36-.185a.527.527,0,0,0-.482,0l-.36.185.065-.372a.528.528,0,0,0-.156-.473l-.265-.253.379-.054a.527.527,0,0,0,.4-.284l.181-.359.181.358a.527.527,0,0,0,.4.284l.379.054Zm0,0" transform="translate(-174.637 -57.89)"/></g></svg>