<svg xmlns="http://www.w3.org/2000/svg" viewBox="4260 2323 20 26.256"><defs><style>.a{fill:#a1b0c5;}</style></defs><g transform="translate(4260 2323)"><path class="a" d="M66.971,61a6.923,6.923,0,1,0,6.921,6.923A6.914,6.914,0,0,0,66.971,61Zm0,12.3c-.11,0-.513-.239-.911-1.3a8.215,8.215,0,0,1-.3-1h2.421a8.216,8.216,0,0,1-.3,1C67.483,73.058,67.08,73.3,66.971,73.3Zm-1.462-3.836a15.547,15.547,0,0,1,0-3.077h2.924a15.547,15.547,0,0,1,0,3.077Zm-3.7-3.087h2.152c-.046.5-.07,1.024-.07,1.549s.024,1.039.07,1.538H61.811a5.458,5.458,0,0,1,0-3.087Zm5.16-3.836c.11,0,.513.239.911,1.3a8.206,8.206,0,0,1,.3,1H65.76a8.2,8.2,0,0,1,.3-1C66.458,62.778,66.861,62.538,66.971,62.538Zm3.007,3.846H72.13a5.423,5.423,0,0,1,0,3.077H69.978c.046-.5.07-1.014.07-1.538S70.023,66.884,69.978,66.385Zm1.413-1.538H69.756a9.708,9.708,0,0,0-.544-1.822,5.418,5.418,0,0,1,2.179,1.822Zm-6.661-1.822a9.7,9.7,0,0,0-.544,1.822H62.551a5.418,5.418,0,0,1,2.179-1.822ZM62.55,71h1.635a9.707,9.707,0,0,0,.544,1.822A5.419,5.419,0,0,1,62.55,71Zm6.661,1.811a9.7,9.7,0,0,0,.544-1.822h1.635a5.418,5.418,0,0,1-2.179,1.822Zm0,0" transform="translate(-56.971 -57.872)"/><path class="a" d="M10,0A10.037,10.037,0,0,0,0,10.051a9.907,9.907,0,0,0,2.067,6.09l6.4,8.577H3.846a.769.769,0,1,0,0,1.538H16.154a.769.769,0,0,0,0-1.538h-4.62l6.541-8.767,0-.006A9.925,9.925,0,0,0,20,10.051,10.037,10.037,0,0,0,10,0Zm6.839,15.035L10,24.2,3.29,15.207a8.381,8.381,0,0,1-1.752-5.156,8.462,8.462,0,1,1,16.923,0A8.4,8.4,0,0,1,16.839,15.035Zm0,0"/></g></svg>