<svg xmlns="http://www.w3.org/2000/svg" viewBox="4260 2168 20 31.03"><defs><style>.a{fill:#a1b0c5;}</style></defs><g transform="translate(4040 1463)"><g transform="translate(220 705)"><path class="a" d="M20,0H0V31.03H20ZM18.182,1.818V3.636H1.818V1.818Zm0,3.636V25.576H1.818V5.455ZM1.818,29.212V27.394H18.182v1.818Zm0,0"/><path class="a" d="M84.091,139.636a3.636,3.636,0,1,0-3.636,3.636A3.64,3.64,0,0,0,84.091,139.636Zm-3.636,1.818a1.818,1.818,0,1,1,1.818-1.818A1.82,1.82,0,0,1,80.455,141.455Zm0,0,5.455,9.091v-1.818a5.455,5.455,0,0,0-10.909,0v1.818Zm-5.455-5.455a3.64,3.64,0,0,1,3.636,3.636H76.818A3.64,3.64,0,0,1,80.455,145.091Zm0,0" transform="translate(-70.455 -127.758)"/></g></g></svg>